<svg xmlns="http://www.w3.org/2000/svg" xmlns:xlink="http://www.w3.org/1999/xlink" version="1.1" id="Layer_1" x="0px" y="0px" width="490.756px" height="407.078px" viewBox="10 54.922 490.756 407.078" enable-background="new 10 54.922 490.756 407.078" xml:space="preserve" xmlns:xml="http://www.w3.org/XML/1998/namespace">
<path fill="#FFFFFF" d="M500.756,104.621c-2.354,18.478-29.152,37.017-45.388,51.062C471.388,391.852,204.562,539.172,10,419.498  c54.568,0.41,115.048-14.568,147.51-45.387c-47.198-7.646-80.637-29.051-93.612-70.918c13.825-1.305,33.228,2.969,42.551-2.836  c-43.174-16.398-77.313-41.828-79.428-99.288c15.378,1.642,23.372,10.668,42.55,8.511c-27.918-17.9-59.797-85.963-31.203-136.163  c50.667,56.183,113.916,99.785,212.755,107.796C226.604,76.945,364.818,12.337,427.001,87.601  c24.176-5.137,44.551-14.075,65.244-22.694c-8.475,23.676-25.691,38.606-42.551,53.898  C468.019,115.382,487.381,112.996,500.756,104.621z"/>
</svg>